<svg xmlns="http://www.w3.org/2000/svg" width="32" height="32" viewBox="0 0 32 32">
  <g id="End_icon" transform="translate(-3195 755)">
    <g id="Group_52" data-name="Group 52">
      <circle id="Ellipse_12" data-name="Ellipse 12" cx="16" cy="16" r="16" transform="translate(3195 -755)" fill="#eaeaea"/>
      <g id="private-garage" transform="translate(3202.819 -749.789)">
        <path id="Path_56" data-name="Path 56" d="M55.471,119.7a.816.816,0,0,0-.217.03l-.274.076-.4-.985a1.746,1.746,0,0,0-1.493-1H48.645a1.746,1.746,0,0,0-1.493,1l-.4.983-.268-.074a.816.816,0,0,0-.217-.03.591.591,0,0,0-.614.607.767.767,0,0,0,.6.728,6.194,6.194,0,0,0-.335,1.813v2.1a.812.812,0,0,0,.811.811h.3a.812.812,0,0,0,.811-.811v-.392H53.9v.392a.812.812,0,0,0,.811.811H55a.812.812,0,0,0,.811-.811v-2.1a6.2,6.2,0,0,0-.334-1.811.768.768,0,0,0,.6-.729A.591.591,0,0,0,55.471,119.7Zm-8.219.818.659-1.607a1.049,1.049,0,0,1,.9-.6H52.92a1.049,1.049,0,0,1,.9.6l.659,1.607a.4.4,0,0,1-.4.6H47.655A.4.4,0,0,1,47.252,120.516ZM49,123.128a.325.325,0,0,1-.325.325H47.33a.325.325,0,0,1-.325-.325v-.537a.325.325,0,0,1,.325-.325h1.346a.325.325,0,0,1,.325.325Zm5.706,0a.325.325,0,0,1-.325.325H53.036a.325.325,0,0,1-.325-.325v-.537a.325.325,0,0,1,.325-.325h1.346a.325.325,0,0,1,.325.325Z" transform="translate(-42.686 -107.563)" fill="#424b4d"/>
        <path id="Path_57" data-name="Path 57" d="M16,7.251,8.543,2.879a.773.773,0,0,0-.724,0L.36,7.251A.784.784,0,0,0,0,7.88V18.3a.487.487,0,0,0,.487.487h.838a.487.487,0,0,0,.487-.487V9.482a.162.162,0,0,1,.162-.162H14.388a.162.162,0,0,1,.162.162V18.3a.487.487,0,0,0,.487.487h.838a.487.487,0,0,0,.487-.487V7.88A.783.783,0,0,0,16,7.251Z" fill="#424b4d"/>
      </g>
    </g>
  </g>
</svg>
