<svg xmlns="http://www.w3.org/2000/svg" width="32" height="32" viewBox="0 0 32 32">
  <g id="Meal_icon" transform="translate(-3195 883)">
    <g id="Group_50" data-name="Group 50">
      <circle id="Ellipse_12" data-name="Ellipse 12" cx="16" cy="16" r="16" transform="translate(3195 -883)" fill="#eaeaea"/>
      <g id="lunch" transform="translate(3200.136 -877)">
        <path id="Path_58" data-name="Path 58" d="M32.949,7.153A1.308,1.308,0,0,1,33.9,8.411v2.484a6.213,6.213,0,0,1,1.523.64l.1.061V8.411a1.308,1.308,0,0,1,.949-1.258,1.308,1.308,0,0,0,.949-1.258V2.542a.542.542,0,0,0-1.085,0V5.254a.542.542,0,1,1-1.085,0V2.542a.542.542,0,1,0-1.085,0V5.254a.542.542,0,0,1-1.085,0V2.542a.542.542,0,0,0-1.085,0V5.894A1.308,1.308,0,0,0,32.949,7.153Z" transform="translate(-21.136)" fill="#424b4d"/>
        <path id="Path_59" data-name="Path 59" d="M3,54.03v.263c0,.679,2.992,1.627,7.864,1.627s7.864-.948,7.864-1.627V54.03c-1.27.888-4.583,1.348-7.864,1.348S4.27,54.918,3,54.03Z" transform="translate(0 -37.92)" fill="#424b4d"/>
        <path id="Path_60" data-name="Path 60" d="M14.371,36.673s0,.01-.019.024a.445.445,0,0,0-.035.036c0,.01-.008.047-.023.113a2.9,2.9,0,0,1-2.27,2.27,1.1,1.1,0,0,0-.129.032s-.006.011-.02.025a.455.455,0,0,0-.035.036c0,.01-.008.047-.023.113a2.807,2.807,0,0,1-.792,1.478l-.192.192-.593-.593a5.665,5.665,0,0,0-.116.692,25.26,25.26,0,0,0,5.932.6c.4,0,.783-.007,1.156-.019a2.44,2.44,0,0,1,1.556-4.32c.046,0,.092.008.139.011a2.429,2.429,0,0,1,.3-.584A5.669,5.669,0,0,0,16.328,36h-.516a2.823,2.823,0,0,1-1.313.641A1.137,1.137,0,0,0,14.371,36.673Zm-1.3,3.937h-.542v-.542h.542Zm1.085.542h-.542V40.61h.542Zm0-1.627h-.542v-.542h.542Zm1.9-2.441H16.6v.542h-.542Zm-.271,4.068h-.542V40.61h.542Zm0-1.9h-.542v-.542h.542ZM14.7,36.814h.542v.542H14.7Z" transform="translate(-5.193 -24.78)" fill="#424b4d"/>
        <path id="Path_61" data-name="Path 61" d="M49.451,49.975c-.047,0-.092,0-.139-.007a2.454,2.454,0,0,1-.438.764c2.1-.337,3.288-.872,3.288-1.3,0-.135-.178-.351-.659-.583A2.439,2.439,0,0,1,49.451,49.975Z" transform="translate(-33.434 -34.144)" fill="#424b4d"/>
        <path id="Path_62" data-name="Path 62" d="M36.9,43a1.9,1.9,0,0,0-.5,3.727q.7-.045,1.319-.116a1.917,1.917,0,0,0,.94-1A2.448,2.448,0,0,1,37.046,44.1a.813.813,0,1,0-.148,1.613v.542a1.356,1.356,0,1,1,0-2.712h.016a2.444,2.444,0,0,1-.016-.273,2.471,2.471,0,0,1,.016-.27H36.9Z" transform="translate(-23.322 -29.881)" fill="#424b4d"/>
        <path id="Path_63" data-name="Path 63" d="M44,38.9A1.9,1.9,0,1,0,45.9,37,1.9,1.9,0,0,0,44,38.9Zm3.254,0A1.356,1.356,0,1,1,45.9,37.542,1.357,1.357,0,0,1,47.254,38.9Z" transform="translate(-29.881 -25.508)" fill="#424b4d"/>
        <circle id="Ellipse_17" data-name="Ellipse 17" cx="0.814" cy="0.814" r="0.814" transform="translate(15.203 12.576)" fill="#424b4d"/>
        <path id="Path_64" data-name="Path 64" d="M4.4,49.931a6.223,6.223,0,0,1,.2-.988l-.613-.614c-.722.28-.991.553-.991.724C3,49.329,3.492,49.648,4.4,49.931Z" transform="translate(0 -33.765)" fill="#424b4d"/>
        <path id="Path_65" data-name="Path 65" d="M8.9,34.764a1.78,1.78,0,0,1,1.425-1.425,1.24,1.24,0,0,0,1.017-1.017A1.777,1.777,0,0,1,12.764,30.9a1.222,1.222,0,0,0,.5-.2l-.42-.42c-.047.016-.1.03-.182.047A2.354,2.354,0,0,0,10.8,32.186a.712.712,0,0,1-.615.615,2.358,2.358,0,0,0-1.863,1.862,1.868,1.868,0,0,1-.048.184l.42.42a1.218,1.218,0,0,0,.2-.5Z" transform="translate(-3.846 -20.609)" fill="#424b4d"/>
        <path id="Path_66" data-name="Path 66" d="M14.382,33.939a1.152,1.152,0,0,0-.345.67,1.779,1.779,0,0,1-1.425,1.425,1.24,1.24,0,0,0-1.017,1.017,1.7,1.7,0,0,1-.344.768l.394.394A2.266,2.266,0,0,0,12.11,37.2a.713.713,0,0,1,.615-.615,2.356,2.356,0,0,0,1.862-1.862.71.71,0,0,1,.613-.614,2.257,2.257,0,0,0,1.014-.464l-.394-.394a1.7,1.7,0,0,1-.767.343A1.15,1.15,0,0,0,14.382,33.939Z" transform="translate(-6.013 -22.775)" fill="#424b4d"/>
        <path id="Path_67" data-name="Path 67" d="M14.356,8.643v2.231c.048-.055.1-.111.152-.167a2.773,2.773,0,0,1,.933-.626V8.643A1.622,1.622,0,0,1,16,7.437a2.668,2.668,0,0,0,.8-2A2.2,2.2,0,0,0,14.9,3,2.2,2.2,0,0,0,13,5.441a2.668,2.668,0,0,0,.8,2A1.622,1.622,0,0,1,14.356,8.643Z" transform="translate(-7.288 -0.729)" fill="#424b4d"/>
      </g>
    </g>
  </g>
</svg>
