<svg xmlns="http://www.w3.org/2000/svg" width="32" height="32" viewBox="0 0 32 32">
  <g id="Running_icon" transform="translate(-1114 -497)">
    <rect id="Rectangle_67" data-name="Rectangle 67" width="32" height="32" rx="16" transform="translate(1114 497)" fill="#eaeaea"/>
    <path id="Path_68" data-name="Path 68" d="M14.249,67H12V64H1.5A1.5,1.5,0,0,0,0,65.5v8.249H1.5a2.25,2.25,0,1,0,4.5,0h4.5a2.25,2.25,0,1,0,4.5,0h1.5V70ZM3.75,74.874a1.125,1.125,0,1,1,1.125-1.125A1.123,1.123,0,0,1,3.75,74.874Zm9,0a1.125,1.125,0,1,1,1.125-1.125A1.123,1.123,0,0,1,12.749,74.874ZM12,70V68.125h1.875L15.347,70Z" transform="translate(1122.731 443)" fill="#424b4d"/>
  </g>
</svg>
