<svg xmlns="http://www.w3.org/2000/svg" width="17.954" height="10.703" viewBox="0 0 17.954 10.703"><defs><style>.a{fill:#ff2e56;}</style></defs><g transform="translate(0 -98.725)"><path class="a" d="M8.977,98.725c-3.43,0-6.541,1.877-8.837,4.925a.711.711,0,0,0,0,.848c2.3,3.052,5.406,4.929,8.837,4.929s6.541-1.877,8.837-4.925a.711.711,0,0,0,0-.848C15.518,100.6,12.408,98.725,8.977,98.725Zm.246,9.12a3.776,3.776,0,1,1,3.522-3.522A3.779,3.779,0,0,1,9.223,107.845ZM9.109,106.1a2.033,2.033,0,1,1,1.9-1.9A2.03,2.03,0,0,1,9.109,106.1Z" transform="translate(0 0)"/></g></svg>