<svg id="location" xmlns="http://www.w3.org/2000/svg" width="21.87" height="30.87" viewBox="0 0 21.87 30.87">
  <path id="Path_1" data-name="Path 1" d="M90.2,337.05a52.274,52.274,0,0,0-3.871,4.259l-.758.932-.757-.931a51.87,51.87,0,0,0-3.9-4.26H78.277L74.639,347.6h21.87L92.871,337.05Z" transform="translate(-74.639 -316.729)" fill="#7cc246"/>
  <path id="Path_2" data-name="Path 2" d="M187.436,82.017a4.728,4.728,0,1,0-4.727,4.728A4.733,4.733,0,0,0,187.436,82.017Z" transform="translate(-171.773 -72.629)" fill="#7cc246"/>
  <path id="Path_3" data-name="Path 3" d="M109.713,22.661a53.118,53.118,0,0,1,6.088-6.13,9.385,9.385,0,1,0-12.245-.06A57.988,57.988,0,0,1,109.713,22.661ZM103.177,9.387a6.536,6.536,0,1,1,6.536,6.536A6.544,6.544,0,0,1,103.177,9.387Z" transform="translate(-98.779 0)" fill="#7cc246"/>
</svg>
