<svg xmlns="http://www.w3.org/2000/svg" width="32" height="32" viewBox="0 0 32 32">
  <g id="Start_icon" transform="translate(-3195 1075)">
    <circle id="Ellipse_12" data-name="Ellipse 12" cx="16" cy="16" r="16" transform="translate(3195 -1075)" fill="#eaeaea"/>
    <g id="power" transform="translate(3203.797 -1067)">
      <g id="Group_44" data-name="Group 44" transform="translate(0)">
        <path id="Path_54" data-name="Path 54" d="M24.437,9.488a7.193,7.193,0,0,1,2.639-6.281,1.066,1.066,0,0,1,1.744.817h0a1.081,1.081,0,0,1-.412.839,5.078,5.078,0,1,0,6.4,0,1.076,1.076,0,0,1-.408-.836h0a1.063,1.063,0,0,1,1.721-.836,7.2,7.2,0,1,1-11.683,6.3ZM31.606,0a1.061,1.061,0,0,0-1.061,1.061V5.951a1.061,1.061,0,0,0,2.123,0V1.061A1.061,1.061,0,0,0,31.606,0Z" transform="translate(-24.405)" fill="#424b4d"/>
      </g>
    </g>
  </g>
</svg>
